<svg xmlns="http://www.w3.org/2000/svg" viewBox="0 0 89.76 89.75"><defs><style>.cls-1{fill:#3cad4b;}.cls-2{fill:#017400;}.cls-3{fill:#1e9025;}</style></defs><g id="Layer_2" data-name="Layer 2"><g id="Layer_1-2" data-name="Layer 1"><path class="cls-1" d="M33.67,65.35a23.35,23.35,0,0,1,.08-41,22.94,22.94,0,0,1,3.8-1.64A23,23,0,0,0,53.6,1C53,0,51,0,44.89,0c-9.08,0-9.21.17-8.81,3.22,1.07,8.12-9.42,12.5-14.45,6-1.94-2.52-2.1-2.52-8.68,4.16-6.22,6.3-6.33,6.28-3.77,8.25a8.09,8.09,0,0,1,2.56,9.53A8.15,8.15,0,0,1,3.08,36C0,35.63,0,35.73,0,45.2.08,53.81,0,54,3.3,53.63A8.06,8.06,0,0,1,9.76,67.52c-3,2.83-2.84,2.61,2.84,8.48,5.43,5.62,6.33,6.73,8.16,5.24L34,68A1.63,1.63,0,0,0,33.67,65.35Z"/><path class="cls-2" d="M85.43,36.13a8.11,8.11,0,0,1-5.27-14.21c2.85-2.5,2.82-2.37-3.55-8.75-4.31-4.31-5.71-5.75-6.87-5.4l-14,14a1.65,1.65,0,0,0,.36,2.61,23.35,23.35,0,0,1-.1,41,24.5,24.5,0,0,1-5.11,2c-8.54,2.28-14.73,9.63-14.73,18.47v1.27c.15,2.54,1.19,2.42,8.06,2.52,9.32.14,9.1.35,9.38-4.66a8.11,8.11,0,0,1,14-5.09c3,3.15,2.39,3.11,8.73-3.14,6.56-6.47,6.86-6.25,3.68-9.14a8.1,8.1,0,0,1,6.06-14.07c3.68.27,3.51.06,3.63-8.09C89.85,36.27,90,36.16,85.43,36.13Z"/><path class="cls-3" d="M41.11,59h8a.76.76,0,0,0,.77-.76V50.43a.76.76,0,0,1,.77-.76h7.84a.78.78,0,0,0,.77-.77V40.84a.77.77,0,0,0-.77-.76H50.7a.76.76,0,0,1-.77-.77V31.47a.76.76,0,0,0-.77-.77h-8a.76.76,0,0,0-.77.77v7.84a.76.76,0,0,1-.77.77H31.73a.77.77,0,0,0-.77.76V48.9a.78.78,0,0,0,.77.77h7.84a.76.76,0,0,1,.77.76v7.85A.76.76,0,0,0,41.11,59Z"/></g></g></svg>