<?xml version="1.0" standalone="no"?>
<!DOCTYPE svg PUBLIC "-//W3C//DTD SVG 20010904//EN"
 "http://www.w3.org/TR/2001/REC-SVG-20010904/DTD/svg10.dtd">
<svg version="1.0" xmlns="http://www.w3.org/2000/svg"
 width="1024.000000pt" height="1024.000000pt" viewBox="0 0 1024.000000 1024.000000"
 preserveAspectRatio="xMidYMid meet">
<metadata>
Created by potrace 1.14, written by Peter Selinger 2001-2017
</metadata>
<g transform="translate(0.000000,1024.000000) scale(0.100000,-0.100000)"
fill="#000000" stroke="none">
<path d="M4558 10235 c-2 -1 -43 -5 -93 -8 -208 -13 -308 -47 -344 -119 -20
-42 -21 -72 -6 -233 20 -208 -2 -356 -75 -513 -126 -269 -415 -480 -715 -520
-65 -9 -249 -8 -299 1 -164 31 -329 113 -450 226 -26 25 -82 87 -123 138 -114
143 -159 171 -240 150 -116 -30 -220 -123 -823 -734 -492 -498 -552 -578 -510
-688 12 -33 40 -60 150 -149 186 -150 282 -291 346 -502 24 -79 27 -106 27
-239 1 -128 -2 -162 -22 -235 -59 -209 -173 -376 -346 -505 -200 -149 -415
-200 -710 -170 -38 4 -83 8 -98 10 -47 4 -110 -15 -139 -42 -42 -40 -62 -112
-76 -273 -9 -109 -9 -1210 0 -1355 14 -211 38 -293 101 -339 31 -23 62 -24
346 -14 93 3 145 0 206 -13 215 -46 407 -162 534 -323 252 -320 273 -738 54
-1084 -20 -31 -97 -119 -172 -195 -156 -157 -185 -199 -185 -266 0 -99 53
-166 457 -586 357 -370 609 -618 681 -672 130 -96 227 -102 322 -20 86 74
1551 1552 1566 1579 22 42 21 110 -4 161 -17 34 -80 90 -118 105 -31 12 -218
137 -315 211 -144 110 -373 342 -486 493 -264 353 -431 737 -503 1158 -12 71
-15 95 -21 154 -3 34 -8 75 -10 91 -6 40 -6 373 -1 405 2 14 7 54 11 90 25
256 105 556 207 780 79 174 119 247 213 390 216 331 517 622 845 817 194 115
297 162 572 262 109 39 246 94 304 122 698 332 1223 966 1414 1710 28 108 48
208 55 270 3 30 8 65 10 79 20 126 23 284 5 305 -12 15 -106 68 -112 64 -3 -2
-100 12 -138 19 -26 5 -1286 12 -1292 7z"/>
<path d="M7150 8546 c-448 -449 -821 -828 -829 -843 -23 -44 -18 -125 12 -175
19 -33 45 -55 109 -93 76 -45 219 -138 243 -157 6 -5 44 -35 87 -68 123 -96
297 -264 398 -387 57 -69 220 -297 220 -308 0 -2 20 -38 45 -80 71 -120 179
-361 214 -477 5 -18 19 -64 30 -103 12 -38 24 -86 27 -105 3 -19 8 -38 10 -42
5 -7 32 -147 38 -193 2 -16 6 -55 10 -85 4 -30 9 -75 11 -100 6 -60 6 -365 0
-415 -4 -42 -13 -118 -20 -172 -4 -34 -21 -132 -31 -173 -3 -14 -7 -36 -10
-50 -40 -203 -181 -551 -305 -757 -53 -87 -165 -253 -178 -263 -4 -3 -14 -14
-22 -26 -61 -89 -261 -295 -389 -401 -286 -237 -590 -396 -970 -507 -137 -41
-285 -90 -340 -114 -190 -82 -385 -193 -523 -299 -34 -26 -68 -52 -76 -58 -44
-33 -277 -271 -323 -330 -85 -109 -159 -223 -218 -336 -7 -13 -17 -31 -22 -39
-4 -8 -12 -24 -17 -35 -5 -11 -20 -45 -34 -75 -55 -121 -121 -348 -144 -490
-25 -160 -36 -465 -19 -564 17 -104 79 -161 200 -182 14 -2 38 -6 52 -9 78
-13 492 -24 1014 -26 342 -1 415 3 515 32 135 40 174 112 190 351 15 233 23
284 57 388 171 523 768 782 1266 548 121 -57 202 -117 314 -235 148 -155 212
-203 267 -203 41 0 120 42 191 101 61 51 389 371 813 794 272 272 336 357 337
448 0 62 -33 108 -184 259 -140 139 -224 248 -255 329 -7 19 -21 54 -31 79
-50 126 -67 324 -40 470 65 357 336 649 681 733 98 24 146 29 249 27 241 -5
284 -3 327 16 57 25 95 94 109 199 3 22 7 54 10 70 8 60 17 520 18 960 0 395
-2 458 -17 519 -23 92 -53 143 -102 171 -62 36 -112 45 -282 50 -285 9 -410
43 -588 159 -179 117 -309 291 -374 500 -32 104 -33 112 -36 251 -3 115 0 142
25 240 51 202 111 299 306 490 78 77 152 156 163 175 52 87 11 180 -160 369
-73 80 -640 651 -789 793 -127 123 -263 232 -309 250 -14 5 -44 12 -66 14
l-40 5 -815 -815z"/>
<path d="M4665 6730 c-11 -4 -28 -17 -38 -27 -16 -19 -17 -54 -17 -487 0 -409
-2 -472 -16 -502 -9 -18 -25 -36 -36 -40 -11 -3 -230 -6 -487 -6 -503 0 -511
-1 -531 -53 -5 -13 -9 -236 -9 -496 0 -507 1 -513 51 -536 17 -7 175 -11 490
-11 424 0 468 -2 492 -17 14 -10 29 -29 33 -43 3 -14 6 -234 7 -489 l1 -465
28 -24 28 -24 487 0 c367 1 491 4 503 13 38 29 39 45 39 517 0 511 0 512 61
525 18 4 235 7 483 7 478 0 491 1 516 47 14 27 14 975 0 1002 -25 46 -40 48
-491 48 -233 0 -443 0 -466 0 -29 1 -50 8 -69 24 l-27 24 -1 485 c-1 520 1
498 -51 525 -23 12 -948 15 -980 3z"/>
</g>
</svg>
